<?xml version="1.0" standalone="no"?>
<!DOCTYPE svg PUBLIC "-//W3C//DTD SVG 20010904//EN"
 "http://www.w3.org/TR/2001/REC-SVG-20010904/DTD/svg10.dtd">
<svg version="1.0" xmlns="http://www.w3.org/2000/svg"
 width="94.000000pt" height="94.000000pt" viewBox="0 0 94.000000 94.000000"
 preserveAspectRatio="xMidYMid meet">
<metadata>
Created by potrace 1.14, written by Peter Selinger 2001-2017
</metadata>
<g transform="translate(0.000000,94.000000) scale(0.100000,-0.100000)"
fill="#000000" stroke="none">
<path d="M169 807 c-16 -138 74 -238 218 -241 77 -2 84 -9 85 -99 1 -90 -9
-104 -74 -102 -147 4 -242 -93 -229 -236 1 -14 26 -16 234 -14 137 1 242 6
258 12 37 16 88 61 105 94 21 42 25 122 9 184 -13 52 -12 96 5 140 4 11 7 46
5 77 -3 74 -36 132 -95 166 l-45 27 -237 2 c-175 1 -238 -2 -239 -10z"/>
</g>
</svg>
