<svg width="10" height="10" viewBox="0 0 10 10" fill="none" xmlns="http://www.w3.org/2000/svg">
<path d="M8.40954 2.70378L8.40954 8.74751C8.40954 8.97283 8.48562 9.16156 8.63777 9.31372C8.79046 9.4664 8.97946 9.54274 9.20477 9.54274C9.43009 9.54274 9.61909 9.4664 9.77177 9.31372C9.92392 9.16156 10 8.97283 10 8.74751L10 0.795228C10 0.569914 9.92392 0.380915 9.77177 0.228231C9.61909 0.076077 9.43009 4.98234e-08 9.20477 6.95211e-08L1.25249 7.64732e-07C1.02717 7.84429e-07 0.838438 0.0760778 0.686284 0.228232C0.5336 0.380915 0.457258 0.569915 0.457258 0.795229C0.457258 1.02054 0.5336 1.20954 0.686284 1.36223C0.838438 1.51438 1.02717 1.59046 1.25249 1.59046L7.29622 1.59046L0.218691 8.66799C0.0728988 8.81378 1.74042e-06 8.99934 1.76012e-06 9.22465C1.77982e-06 9.44997 0.0728989 9.63552 0.218691 9.78131C0.364483 9.9271 0.550036 10 0.77535 10C1.00067 10 1.18622 9.9271 1.33201 9.78131L8.40954 2.70378Z" fill="white"/>
</svg>
