<svg width="10" height="10" viewBox="0 0 10 10" fill="none" xmlns="http://www.w3.org/2000/svg">
<path d="M8.40954 7.29622L8.40954 1.25249C8.40954 1.02717 8.48562 0.838438 8.63777 0.686284C8.79046 0.5336 8.97946 0.457258 9.20477 0.457258C9.43009 0.457258 9.61909 0.5336 9.77177 0.686284C9.92392 0.838438 10 1.02717 10 1.25249L10 9.20477C10 9.43009 9.92392 9.61909 9.77177 9.77177C9.61909 9.92392 9.43009 10 9.20477 10L1.25249 10C1.02717 10 0.838438 9.92392 0.686284 9.77177C0.5336 9.61908 0.457258 9.43009 0.457258 9.20477C0.457258 8.97946 0.5336 8.79046 0.686284 8.63777C0.838438 8.48562 1.02717 8.40954 1.25249 8.40954L7.29622 8.40954L0.218691 1.33201C0.0728988 1.18622 1.74042e-06 1.00066 1.76012e-06 0.775349C1.77982e-06 0.550034 0.0728989 0.364481 0.218691 0.218689C0.364483 0.0728972 0.550036 1.27532e-07 0.77535 1.4723e-07C1.00067 1.66927e-07 1.18622 0.0728973 1.33201 0.218689L8.40954 7.29622Z" fill="white"/>
</svg>
